#!OML:ASF F:\VICON\USERDATA\INSTALL\rory3\rory3.ASF
:FULLY-SPECIFIED
:DEGREES
1023
root 0.64572 18.1319 3.52254 -1.76888 -3.64663 -358.551
lowerback 7.26649 -0.796891 -3.37789
upperback -0.453107 -1.35306 0.0799104
thorax -4.46907 -0.589419 2.12926
lowerneck -13.0863 -12.4825 -17.814
upperneck 24.7087 -16.7852 11.3803
head 12.9795 -7.99129 4.42243
rclavicle 1.08097e-014 -2.11209e-015
rhumerus -31.7966 -8.05693 -86.275
rradius 28.3816
rwrist 8.67568
rhand -14.4731 8.95949
rfingers 7.12502
rthumb 11.6729 -20.6953
lclavicle 1.08097e-014 -2.11209e-015
lhumerus -36.2075 6.78084 83.901
lradius 28.9992
lwrist -9.39348
lhand -15.4114 25.6252
lfingers 7.12502
lthumb 10.7679 55.3292
rfemur -4.94132 2.81682 19.2336
rtibia 23.9998
rfoot -13.26 -1.21892
rtoes -1.15853
lfemur 3.53167 -1.75658 -22.928
ltibia 8.93718
lfoot -5.50473 -0.546086
ltoes -6.74844
1024
root 0.64707 18.1294 3.52685 -1.87103 -3.61718 -358.651
lowerback 7.42715 -0.86296 -3.31487
upperback -0.506438 -1.44037 0.131397
thorax -4.61016 -0.630119 2.16112
lowerneck -13.0394 -12.4156 -17.8917
upperneck 24.816 -16.701 11.4101
head 13.0105 -7.96102 4.46812
rclavicle -1.90808e-014 4.22417e-016
rhumerus -31.9065 -7.95523 -86.2387
rradius 28.3737
rwrist 8.57512
rhand -14.3519 9.01529
rfingers 7.12502
rthumb 11.7898 -20.6329
lclavicle -1.90808e-014 4.22417e-016
lhumerus -36.3685 6.79386 83.9419
lradius 29.0214
lwrist -9.36582
lhand -16.7741 25.1548
lfingers 7.12502
lthumb 9.45328 54.9228
rfemur -4.77569 2.80094 19.3588
rtibia 23.9537
rfoot -13.2257 -1.25779
rtoes -0.84947
lfemur 3.63267 -1.78431 -22.8191
ltibia 9.01714
lfoot -5.56169 -0.54615
ltoes -6.56146
1025
root 0.652434 18.1302 3.52436 -1.85766 -3.98313 -358.764
lowerback 7.5003 -0.786572 -3.19481
upperback -0.558237 -1.32997 0.163519
thorax -4.714 -0.575455 2.11717
lowerneck -13.021 -12.3875 -17.9921
upperneck 24.8851 -16.6854 11.5276
head 13.056 -7.95202 4.53486
rclavicle -1.94483e-014 -9.14409e-015
rhumerus -31.9829 -7.87636 -86.2323
rradius 28.4732
rwrist 8.39585
rhand -14.1694 8.88703
rfingers 7.12502
rthumb 11.9657 -20.751
lclavicle -1.94483e-014 -9.14409e-015
lhumerus -36.3952 6.8021 83.9684
lradius 29.0105
lwrist -9.38654
lhand -17.5709 25.0482
lfingers 7.12502
lthumb 8.68441 54.8495
rfemur -4.84104 2.94658 19.4529
rtibia 23.9227
rfoot -13.1497 -1.03236
rtoes -0.919325
lfemur 3.62021 -1.42185 -22.7175
ltibia 9.04654
lfoot -5.61214 -0.541303
ltoes -6.79023
1026
root 0.648577 18.1298 3.53118 -1.98459 -3.61216 -358.832
lowerback 7.54788 -0.934649 -3.18448
upperback -0.490944 -1.52545 0.19224
thorax -4.65843 -0.673932 2.16314
lowerneck -13.0178 -12.3863 -18.0117
upperneck 24.8825 -16.6868 11.5515
head 13.0593 -7.95212 4.54701
rclavicle 2.19709e-014 3.00662e-015
rhumerus -32.0156 -7.7956 -86.2387
rradius 28.6182
rwrist 8.2827
rhand -13.9869 8.71606
rfingers 7.12502
rthumb 12.1417 -20.9116
lclavicle 2.19709e-014 3.00662e-015
lhumerus -36.3758 6.81095 84.0106
lradius 29.0819
lwrist -9.38912
lhand -16.0893 26.8401
lfingers 7.12502
lthumb 10.114 56.5771
rfemur -4.56603 2.9635 19.5939
rtibia 23.8889
rfoot -13.1853 -1.40898
rtoes -0.859125
lfemur 3.73786 -1.791 -22.6102
ltibia 9.09666
lfoot -5.64701 -0.537198
ltoes -6.98911
1027
root 0.648736 18.1288 3.5358 -2.00848 -3.58296 -358.769
lowerback 7.45752 -0.965237 -3.27807
upperback -0.443974 -1.57096 0.181462
thorax -4.55364 -0.696932 2.20658
lowerneck -13.0467 -12.3819 -18.0167
upperneck 24.8964 -16.6806 11.567
head 13.072 -7.94689 4.55396
rclavicle -6.82934e-015 1.2424e-016
rhumerus -32.0214 -7.77003 -86.2393
rradius 28.7361
rwrist 8.24398
rhand -13.8392 8.46148
rfingers 7.12502
rthumb 12.2841 -21.1577
lclavicle -6.82934e-015 1.2424e-016
lhumerus -36.324 6.82703 84.0168
lradius 29.122
lwrist -9.55456
lhand -14.8628 27.7774
lfingers 7.12502
lthumb 11.2971 57.4531
rfemur -4.5209 3.02412 19.542
rtibia 23.8845
rfoot -13.23 -1.49625
rtoes -0.881952
lfemur 3.75666 -1.81735 -22.6681
ltibia 9.12044
lfoot -5.68285 -0.549536
ltoes -6.80717
1028
root 0.651415 18.1281 3.53899 -1.95933 -3.69799 -358.72
lowerback 7.30368 -0.954256 -3.3337
upperback -0.418388 -1.5556 0.168729
thorax -4.44012 -0.690748 2.21871
lowerneck -13.1308 -12.3783 -18.0856
upperneck 24.9578 -16.6852 11.6755
head 13.1347 -7.93978 4.60286
rclavicle -1.18353e-014 -1.18277e-014
rhumerus -32.0726 -7.67901 -86.2695
rradius 28.928
rwrist 8.13159
rhand -13.792 8.1464
rfingers 7.12502
rthumb 12.3297 -21.4701
lclavicle -1.18353e-014 -1.18277e-014
lhumerus -36.2079 6.93252 83.9817
lradius 29.139
lwrist -9.97151
lhand -14.7876 27.4366
lfingers 7.12502
lthumb 11.3696 57.1084
rfemur -4.60216 3.03591 19.4752
rtibia 23.8876
rfoot -13.2282 -1.43075
rtoes -1.24675
lfemur 3.72756 -1.70248 -22.7281
ltibia 9.08185
lfoot -5.64502 -0.549002
ltoes -6.64795
1029
root 0.65398 18.1278 3.53945 -1.9212 -3.78835 -358.744
lowerback 7.22859 -0.959241 -3.31318
upperback -0.404544 -1.55735 0.169113
thorax -4.38373 -0.693394 2.20568
lowerneck -13.2693 -12.3889 -18.0871
upperneck 25.075 -16.6866 11.6618
head 13.2103 -7.93561 4.59224
rclavicle -1.72855e-014 3.35449e-015
rhumerus -32.0761 -7.64504 -86.3097
rradius 28.9732
rwrist 8.10648
rhand -13.8846 8.10139
rfingers 7.12502
rthumb 12.2403 -21.5204
lclavicle -1.72855e-014 3.35449e-015
lhumerus -36.1357 6.87352 84.0332
lradius 29.2111
lwrist -9.73286
lhand -14.8809 27.1075
lfingers 7.12502
lthumb 11.2796 56.7842
rfemur -4.66104 3.06356 19.4942
rtibia 23.9018
rfoot -13.2394 -1.3901
rtoes -1.30122
lfemur 3.71455 -1.61439 -22.709
ltibia 9.03854
lfoot -5.59615 -0.546189
ltoes -6.96339
1030
root 0.657183 18.1303 3.53974 -1.9038 -3.84233 -358.794
lowerback 7.24543 -0.985082 -3.25424
upperback -0.42646 -1.58746 0.175085
thorax -4.41554 -0.708715 2.18271
lowerneck -13.3445 -12.3747 -18.0827
upperneck 25.1709 -16.6526 11.6194
head 13.254 -7.92174 4.58007
rclavicle 3.52006e-014 -9.44227e-015
rhumerus -32.097 -7.73222 -86.2809
rradius 28.8985
rwrist 8.26342
rhand -14.0065 8.40138
rfingers 7.12502
rthumb 12.1228 -21.2274
lclavicle 3.52006e-014 -9.44227e-015
lhumerus -36.1568 6.75414 84.1104
lradius 29.2736
lwrist -9.23139
lhand -15.0968 26.5803
lfingers 7.12502
lthumb 11.0714 56.2683
rfemur -4.67771 3.14701 19.5365
rtibia 23.9119
rfoot -13.2348 -1.35702
rtoes -0.924468
lfemur 3.71803 -1.56253 -22.6634
ltibia 9.01213
lfoot -5.61835 -0.535427
ltoes -7.22434
1031
root 0.66107 18.131 3.54151 -1.90348 -3.93047 -358.82
lowerback 7.30362 -0.998641 -3.21843
upperback -0.483174 -1.60632 0.159356
thorax -4.50773 -0.716602 2.15062
lowerneck -13.3401 -12.3495 -18.0358
upperneck 25.2664 -16.6334 11.5898
head 13.2806 -7.91317 4.56759
rclavicle -2.28556e-014 -9.06955e-016
rhumerus -32.1873 -7.85732 -86.2682
rradius 28.8365
rwrist 8.43781
rhand -14.0401 8.48268
rfingers 7.12502
rthumb 12.0904 -21.148
lclavicle -2.28556e-014 -9.06955e-016
lhumerus -36.191 6.72731 84.0801
lradius 29.2938
lwrist -9.30064
lhand -16.5012 25.1648
lfingers 7.12502
lthumb 9.71657 54.9206
rfemur -4.6941 3.18714 19.5425
rtibia 23.9367
rfoot -13.2409 -1.28775
rtoes -0.877485
lfemur 3.76335 -1.47469 -22.6484
ltibia 8.94741
lfoot -5.65289 -0.546443
ltoes -7.2651
1032
root 0.665608 18.1301 3.54607 -1.91253 -4.03803 -358.791
lowerback 7.34511 -1.01812 -3.2436
upperback -0.567407 -1.63884 0.133258
thorax -4.61721 -0.729264 2.14354
lowerneck -13.2999 -12.2952 -17.9804
upperneck 25.4331 -16.5836 11.5394
head 13.3207 -7.89486 4.55549
rclavicle -3.01647e-015 1.08089e-015
rhumerus -32.3596 -7.8496 -86.2984
rradius 28.8185
rwrist 8.46506
rhand -14.0214 8.12763
rfingers 7.12502
rthumb 12.1085 -21.502
lclavicle -3.01647e-015 1.08089e-015
lhumerus -36.2634 6.82647 83.9858
lradius 29.2576
lwrist -9.471
lhand -17.7099 24.2678
lfingers 7.12502
lthumb 8.55033 54.0747
rfemur -4.70496 3.14339 19.4781
rtibia 23.956
rfoot -13.2548 -1.1505
rtoes -0.97709
lfemur 3.84408 -1.36458 -22.7045
ltibia 8.87092
lfoot -5.65371 -0.564212
ltoes -7.16238
1033
root 0.668399 18.1292 3.54982 -1.92276 -4.1174 -358.648
lowerback 7.3803 -1.02605 -3.41151
upperback -0.637742 -1.66861 0.102067
thorax -4.70526 -0.737538 2.2107
lowerneck -13.2745 -12.2492 -17.9522
upperneck 25.5606 -16.5214 11.4626
head 13.3455 -7.87539 4.53807
rclavicle -1.52173e-014 4.5472e-015
rhumerus -32.522 -7.78266 -86.2759
rradius 28.8308
rwrist 8.46686
rhand -13.9844 7.80813
rfingers 7.12502
rthumb 12.1442 -21.8194
lclavicle -1.52173e-014 4.5472e-015
lhumerus -36.332 6.85671 84.0111
lradius 29.2951
lwrist -9.23893
lhand -16.9114 25.3826
lfingers 7.12502
lthumb 9.32084 55.1566
rfemur -4.7113 3.11713 19.2977
rtibia 23.9504
rfoot -13.2893 -1.04039
rtoes -1.22305
lfemur 3.86293 -1.27921 -22.8741
ltibia 8.87911
lfoot -5.67321 -0.577029
ltoes -7.23584
1034
root 0.671632 18.1284 3.55165 -1.97302 -4.20644 -358.676
lowerback 7.42071 -1.02317 -3.38551
upperback -0.607633 -1.66297 0.110796
thorax -4.6974 -0.735823 2.20515
lowerneck -13.3887 -12.2411 -17.9301
upperneck 25.6217 -16.4939 11.4373
head 13.3843 -7.8589 4.526
rclavicle 2.2643e-014 -3.23025e-016
rhumerus -32.4578 -7.81173 -86.2503
rradius 28.7604
rwrist 8.50327
rhand -13.9305 7.69913
rfingers 7.12502
rthumb 12.1962 -21.9253
lclavicle 2.2643e-014 -3.23025e-016
lhumerus -36.2016 6.89578 84.0277
lradius 29.3576
lwrist -9.40287
lhand -15.8651 26.2131
lfingers 7.12502
lthumb 10.3302 55.9393
rfemur -4.64634 3.18919 19.3302
rtibia 23.9054
rfoot -13.2563 -1.03805
rtoes -1.23577
lfemur 3.88792 -1.18786 -22.8615
ltibia 8.99674
lfoot -5.75964 -0.535137
ltoes -7.26715
1035
root 0.6762 18.1269 3.55234 -2.0444 -4.30336 -358.841
lowerback 7.4665 -1.02246 -3.20926
upperback -0.533682 -1.64489 0.143614
thorax -4.65075 -0.732708 2.13831
lowerneck -13.5045 -12.2518 -17.8552
upperneck 25.6262 -16.4983 11.4069
head 13.3994 -7.85171 4.49579
rclavicle 2.8187e-014 -3.6713e-015
rhumerus -32.3133 -7.89809 -86.2587
rradius 28.6498
rwrist 8.55273
rhand -13.9963 7.90211
rfingers 7.12502
rthumb 12.1327 -21.7261
lclavicle 2.8187e-014 -3.6713e-015
lhumerus -35.9552 6.95226 84.0258
lradius 29.3018
lwrist -9.61294
lhand -15.9525 25.5655
lfingers 7.12502
lthumb 10.246 55.296
rfemur -4.51876 3.2693 19.5134
rtibia 23.8166
rfoot -13.2266 -1.02469
rtoes -1.06113
lfemur 3.88152 -1.09307 -22.69
ltibia 9.21914
lfoot -5.86976 -0.539814
ltoes -7.09434
1036
root 0.679915 18.1252 3.55329 -2.04779 -4.38243 -359.007
lowerback 7.46981 -1.04442 -3.06124
upperback -0.525739 -1.65795 0.204564
thorax -4.64567 -0.742295 2.1199
lowerneck -13.5268 -12.2326 -17.7871
upperneck 25.6165 -16.4506 11.3093
head 13.3732 -7.83432 4.45578
rclavicle -3.32464e-015 3.29237e-015
rhumerus -32.2943 -7.81638 -86.2506
rradius 28.5964
rwrist 8.51307
rhand -14.0361 7.99198
rfingers 7.12502
rthumb 12.0943 -21.6385
lclavicle -3.32464e-015 3.29237e-015
lhumerus -35.8636 7.0019 84.0733
lradius 29.2996
lwrist -9.45158
lhand -16.4253 24.4792
lfingers 7.12502
lthumb 9.7898 54.2316
rfemur -4.46035 3.33877 19.6994
rtibia 23.7139
rfoot -13.1545 -1.042
rtoes -1.45227
lfemur 3.78574 -1.01995 -22.5087
ltibia 9.43526
lfoot -5.95754 -0.532807
ltoes -7.32689
1037
root 0.683216 18.1249 3.55487 -2.04015 -4.43726 -359.128
lowerback 7.48662 -1.05264 -2.92661
upperback -0.559183 -1.65675 0.228905
thorax -4.693 -0.743512 2.07042
lowerneck -13.4677 -12.2046 -17.7474
upperneck 25.6036 -16.4102 11.2511
head 13.3376 -7.82241 4.43827
rclavicle 1.0177e-014 -5.18083e-015
rhumerus -32.3284 -7.84672 -86.1947
rradius 28.4975
rwrist 8.51793
rhand -13.931 7.90507
rfingers 7.12502
rthumb 12.1956 -21.7194
lclavicle 1.0177e-014 -5.18083e-015
lhumerus -35.9191 6.97269 84.1064
lradius 29.4406
lwrist -9.35554
lhand -17.455 24.2867
lfingers 7.12502
lthumb 8.79629 54.0834
rfemur -4.42834 3.41307 19.843
rtibia 23.6477
rfoot -13.094 -1.12051
rtoes -1.87973
lfemur 3.74097 -0.969354 -22.3879
ltibia 9.5463
lfoot -6.02297 -0.511667
ltoes -7.34283
